<?xml version="1.0" encoding="utf-8"?>
<!-- Generator: Adobe Illustrator 22.1.0, SVG Export Plug-In . SVG Version: 6.00 Build 0)  -->
<svg version="1.1" id="레이어_1" xmlns="http://www.w3.org/2000/svg" xmlns:xlink="http://www.w3.org/1999/xlink" x="0px"
	 y="0px" viewBox="0 0 500 500" style="enable-background:new 0 0 500 500;" xml:space="preserve">
<style type="text/css">
	.st0{fill:#FFFFFF;}
</style>
<g>
	<g>
		<path class="st0" d="M5.7,250.1c0-135.1,109.9-245,245-245s245,109.9,245,245s-109.9,245-245,245S5.7,385.2,5.7,250.1z
			 M484.5,250.1c0-128.9-104.9-233.7-233.7-233.7C121.9,16.4,17,121.2,17,250.1s104.9,233.7,233.7,233.7
			C379.6,483.8,484.5,379,484.5,250.1z"/>
	</g>
	<g>
		<g>
			<g>
				<g>
					<g>
						<g>
							<path class="st0" d="M159.3,356.6v-24.3h182.9v24.3c0,15.6-12.7,28.4-28.4,28.4H187.6C172,384.9,159.3,372.2,159.3,356.6z
								 M170.1,343.1v13.5c0,9.7,7.9,17.5,17.5,17.5h126.2c9.7,0,17.5-7.9,17.5-17.5v-13.5H170.1z"/>
						</g>
					</g>
					<g>
						<g>
							<path class="st0" d="M159.3,161.6V142c0-15.6,12.7-28.4,28.4-28.4h126.2c15.6,0,28.4,12.7,28.4,28.4v19.7L159.3,161.6
								L159.3,161.6z M331.4,142c0-9.7-7.9-17.5-17.5-17.5H187.6c-9.7,0-17.5,7.9-17.5,17.5v8.9h161.3L331.4,142L331.4,142z"/>
						</g>
					</g>
					<g>
						<g>
							<path class="st0" d="M159.3,343.1V150.8h182.9V343H159.3V343.1z M170.1,161.6v170.6h161.3V161.6H170.1z"/>
						</g>
					</g>
				</g>
				<g>
					<path class="st0" d="M270.5,141.7H231c-2.2,0-4-1.8-4-4s1.8-4,4-4h39.6c2.2,0,4,1.8,4,4S272.7,141.7,270.5,141.7z"/>
				</g>
				<path class="st0" d="M251.5,350c-12,0-12,18.6,0,18.6C263.5,368.7,263.5,350,251.5,350z"/>
			</g>
		</g>
	</g>
	<g>
		<g>
			<path class="st0" d="M275.5,223.8c-2.1-2.1-5.4-2.1-7.5,0l-24.3,24.3l-10.2-10.2c-2.1-2.1-5.4-2.1-7.5,0c-1,1-1.6,2.3-1.6,3.8
				c0,1.4,0.6,2.8,1.6,3.8l14,14c1,1,2.3,1.6,3.8,1.6c1.4,0,2.8-0.6,3.8-1.6l28.1-28c1-1,1.6-2.3,1.6-3.8
				C277.1,226.2,276.5,224.8,275.5,223.8z"/>
		</g>
	</g>
</g>
</svg>
