<?xml version="1.0" encoding="utf-8"?>
<!-- Generator: Adobe Illustrator 22.1.0, SVG Export Plug-In . SVG Version: 6.00 Build 0)  -->
<svg version="1.1" id="레이어_1" xmlns="http://www.w3.org/2000/svg" xmlns:xlink="http://www.w3.org/1999/xlink" x="0px"
	 y="0px" viewBox="0 0 500 500" style="enable-background:new 0 0 500 500;" xml:space="preserve">
<style type="text/css">
	.st0{fill:#FFFFFF;}
</style>
<g>
	<g>
		<path class="st0" d="M250.2,495.1c-135.1,0-245-109.9-245-245s109.9-245,245-245s245,109.9,245,245S385.3,495.1,250.2,495.1z
			 M250.2,16.4c-128.9,0-233.7,104.9-233.7,233.7s104.9,233.7,233.7,233.7S483.9,379,483.9,250.1S379,16.4,250.2,16.4z"/>
	</g>
	<path class="st0" d="M348.1,308.5C348.1,308.5,348.1,308.5,348.1,308.5c-1-2.2-9.8-20-24.4-34.5c-9.7-9.6-20-16-30.8-19
		c-3.5-1-7.2-1.1-10.8-0.2c-3.4,0.8-6.7,2.5-9.4,4.9l-9.9,8.8c-6.4-9.1-14.9-20.5-23.4-30.5l1.8-0.8c6.8-3.2,11.6-9.6,12.6-16.9
		c0.3-2,6.3-48.9-18.9-73.9c-2.4-2.4-5-4.5-7.7-6.3c-4.8-3.2-10.8-4.2-16.5-2.8c-1.5,0.4-3,0.9-4.5,1.6l-43.4,21.3
		c-7.1,3.5-12,10.8-12.3,18.7c-0.1,3.9-0.9,39.7,14.3,79.2c9.1,23.7,22.3,44.1,39.1,60.8c22,21.8,49.9,36.6,82.8,44.1
		c1.5,0.4,3,0.5,5,0.5c0.1,0,0.1,0,0.2,0c1.6,0,3.2-0.2,4.7-0.6c2.5-0.6,4.9-1.7,7.1-3.1l32.6-21.9c0.1-0.1,0.2-0.1,0.3-0.2l3.8-2.6
		C349.1,329.2,352.4,317.8,348.1,308.5z M324.8,327.6l-0.1,0.1l0,0L324.8,327.6L324.8,327.6z M324.1,326.4l-0.2,0.2l0-0.1
		L324.1,326.4z M220.5,223.7c0,1.4-0.1,2.7-0.1,4c-2,1.3-3.4,3.3-3.8,5.6c-0.5,2.7,0.3,5.6,2.2,7.6c0.7,0.8,1.5,1.6,3.1,3.4
		c11.6,13,23.9,30,32.1,42c1.4,2.1,3.7,3.4,6.1,3.7c2.5,0.3,5-0.4,6.9-2.1l7-6.1c0.5,0.2,1,0.4,1.6,0.7c0.7,0.3,1.3,0.6,2,0.9
		c1.4,0.7,2.8,1.5,4.2,2.3c0,0,0.9,0.5,0.9,0.5c0.6,0.3,1.2,0.7,1.8,1.1c1.5,1,3,2.1,4.5,3.3l2.3,1.7c2.3,1.9,4.5,3.8,6.7,6
		c1.6,1.6,3.2,3.3,4.7,5l1.5,1.7c1,1.1,1.9,2.2,2.8,3.4l1.6,2c0.8,1,1.6,2.1,2.3,3.1l4.7,6.7c0.9,1.4,1.8,2.7,3,4.8
		c0.6,1,1.1,1.9,1.6,2.8l-26.3,17.7c-0.5,0.3-1,0.5-1.5,0.7c0,0-1.8,0-1.8,0c-29.8-6.8-54.8-20.1-74.5-39.5
		c-15.1-14.9-26.9-33.4-35.2-54.7c-14.5-37.7-13.2-70.9-13.2-72.3c0.1-1.5,1.1-3,2.6-3.7l31.5-15.5c1.8,1.9,3.5,4,5.4,6.9
		c1.6,2.4,3.1,5,4.9,9c1.2,2.8,2.3,5.7,3.2,8.6l0.4,1.2c0.9,2.9,1.6,5.8,2.2,8.7l0.3,1.4c0.5,2.9,1,5.7,1.3,8.5l0.2,1.4
		c0.3,2.8,0.5,5.5,0.6,8.1l0.1,1.3c0.1,2.5,0.2,5,0.1,7.3l4.1,0L220.5,223.7z"/>
</g>
</svg>
