<?xml version="1.0" encoding="utf-8"?>
<!-- Generator: Adobe Illustrator 22.1.0, SVG Export Plug-In . SVG Version: 6.00 Build 0)  -->
<svg version="1.1" id="레이어_1" xmlns="http://www.w3.org/2000/svg" xmlns:xlink="http://www.w3.org/1999/xlink" x="0px"
	 y="0px" viewBox="0 0 500 500" style="enable-background:new 0 0 500 500;" xml:space="preserve">
<style type="text/css">
	.st0{fill:#FFFFFF;}
</style>
<g>
	<g>
		<path class="st0" d="M250.1,495.1c-135.1,0-245-109.9-245-245s109.9-245,245-245s245,109.9,245,245S385.2,495.1,250.1,495.1z
			 M250.1,16.4c-128.9,0-233.7,104.9-233.7,233.7c0,128.9,104.9,233.7,233.7,233.7c128.9,0,233.7-104.9,233.7-233.7
			C483.8,121.2,379,16.4,250.1,16.4z"/>
	</g>
	<g>
		<g>
			<path class="st0" d="M344.8,396H148c-17.5,0-31.7-14.2-31.7-31.7v-235c0-17.5,14.2-31.7,31.7-31.7h196.7
				c17.5,0,31.7,14.2,31.7,31.7v235C376.5,381.8,362.3,396,344.8,396z M148,108.8c-11.3,0-20.5,9.2-20.5,20.5v235
				c0,11.3,9.2,20.5,20.5,20.5h196.7c11.3,0,20.5-9.2,20.5-20.5v-235c0-11.3-9.2-20.5-20.5-20.5L148,108.8L148,108.8z"/>
		</g>
		<g>
			<path class="st0" d="M337.7,200H155.1c-8.9,0-16.1-7.2-16.1-16.1v-43.4c0-8.9,7.2-16.1,16.1-16.1h182.7c8.9,0,16.1,7.2,16.1,16.1
				v43.4C353.8,192.8,346.6,200,337.7,200z M155.1,135.7c-2.7,0-4.8,2.2-4.8,4.8v43.4c0,2.7,2.2,4.8,4.8,4.8h182.7
				c2.7,0,4.8-2.2,4.8-4.8v-43.4c0-2.7-2.2-4.8-4.8-4.8H155.1z"/>
		</g>
		<g>
			<g>
				<polygon class="st0" points="330.2,183.7 328.5,186.2 311.2,186.2 309.1,183.7 311.2,181.2 328.5,181.2 				"/>
				<polygon class="st0" points="330.2,140.8 328.5,143.3 311.2,143.3 309.1,140.8 311.2,138.3 328.5,138.3 				"/>
			</g>
			<g>
				<polygon class="st0" points="308.2,141.2 310.7,144.5 310.7,159 308.2,162.3 305.7,159 305.7,144.5 				"/>
				<polygon class="st0" points="308.2,162.3 310.7,165.6 310.7,180 308.2,183.3 305.7,180 305.7,165.6 				"/>
				<polygon class="st0" points="331.3,140.8 333.8,144.1 333.8,158.5 331.3,162.2 328.9,158.5 328.9,144.1 				"/>
				<polygon class="st0" points="331.3,162.3 333.8,165.6 333.8,180 331.3,183.7 328.9,180 328.9,165.6 				"/>
			</g>
		</g>
		<g>
			<path class="st0" d="M343,368.8h-35.5c-6,0-10.9-4.9-10.9-10.9v-55.6c0-6,4.9-10.9,10.9-10.9H343c6,0,10.9,4.9,10.9,10.9V358
				C353.8,364,349,368.8,343,368.8z M307.5,302.8l0.4,55.2l35.1-0.4l-0.4-54.8L307.5,302.8L307.5,302.8z"/>
		</g>
		<g>
			<path class="st0" d="M343,285.7h-35.5c-6,0-10.9-4.9-10.9-10.9v-55.6c0-6,4.9-10.9,10.9-10.9H343c6,0,10.9,4.9,10.9,10.9v55.6
				C353.8,280.8,349,285.7,343,285.7z M307.5,219.7l0.4,55.2l35.1-0.4l-0.4-54.8H307.5z"/>
		</g>
		<g>
			<path class="st0" d="M176.9,256.5h-27.7c-5.6,0-10.2-4.6-10.2-10.2v-27.6c0-5.6,4.6-10.2,10.2-10.2h27.7
				c5.6,0,10.2,4.6,10.2,10.2v27.6C187.1,251.9,182.5,256.5,176.9,256.5z M150.2,245.3h25.6v-25.6h-25.6V245.3z"/>
		</g>
		<g>
			<path class="st0" d="M176.9,312.7h-27.7c-5.6,0-10.2-4.6-10.2-10.2v-27.6c0-5.6,4.6-10.2,10.2-10.2h27.7
				c5.6,0,10.2,4.6,10.2,10.2v27.6C187.1,308.1,182.5,312.7,176.9,312.7z M150.2,301.4h25.6v-25.6h-25.6V301.4z"/>
		</g>
		<g>
			<path class="st0" d="M176.9,368.8h-27.7c-5.6,0-10.2-4.6-10.2-10.2V331c0-5.6,4.6-10.2,10.2-10.2h27.7c5.6,0,10.2,4.6,10.2,10.2
				v27.6C187.1,364.2,182.5,368.8,176.9,368.8z M150.2,357.6h25.6V332h-25.6V357.6z"/>
		</g>
		<g>
			<path class="st0" d="M229.4,256.5h-27.6c-5.6,0-10.2-4.6-10.2-10.2v-27.6c0-5.6,4.6-10.2,10.2-10.2h27.6
				c5.6,0,10.2,4.6,10.2,10.2v27.6C239.6,251.9,235,256.5,229.4,256.5z M202.8,245.3h25.6v-25.6h-25.6V245.3z"/>
		</g>
		<g>
			<path class="st0" d="M229.4,312.7h-27.6c-5.6,0-10.2-4.6-10.2-10.2v-27.6c0-5.6,4.6-10.2,10.2-10.2h27.6
				c5.6,0,10.2,4.6,10.2,10.2v27.6C239.6,308.1,235,312.7,229.4,312.7z M202.8,301.4h25.6v-25.6h-25.6V301.4z"/>
		</g>
		<g>
			<path class="st0" d="M229.4,368.8h-27.6c-5.6,0-10.2-4.6-10.2-10.2V331c0-5.6,4.6-10.2,10.2-10.2h27.6c5.6,0,10.2,4.6,10.2,10.2
				v27.6C239.6,364.2,235,368.8,229.4,368.8z M202.8,357.6h25.6V332h-25.6V357.6z"/>
		</g>
		<g>
			<path class="st0" d="M282,256.5h-27.7c-5.6,0-10.2-4.6-10.2-10.2v-27.6c0-5.6,4.6-10.2,10.2-10.2H282c5.6,0,10.2,4.6,10.2,10.2
				v27.6C292.2,251.9,287.6,256.5,282,256.5z M255.3,245.3h25.6v-25.6h-25.6L255.3,245.3L255.3,245.3z"/>
		</g>
		<g>
			<path class="st0" d="M282,312.7h-27.7c-5.6,0-10.2-4.6-10.2-10.2v-27.6c0-5.6,4.6-10.2,10.2-10.2H282c5.6,0,10.2,4.6,10.2,10.2
				v27.6C292.2,308.1,287.6,312.7,282,312.7z M255.3,301.4h25.6v-25.6h-25.6L255.3,301.4L255.3,301.4z"/>
		</g>
		<g>
			<path class="st0" d="M282,368.8h-27.7c-5.6,0-10.2-4.6-10.2-10.2V331c0-5.6,4.6-10.2,10.2-10.2H282c5.6,0,10.2,4.6,10.2,10.2
				v27.6C292.2,364.2,287.6,368.8,282,368.8z M255.3,357.6h25.6V332h-25.6L255.3,357.6L255.3,357.6z"/>
		</g>
	</g>
</g>
</svg>
