<?xml version="1.0" encoding="utf-8"?>
<!-- Generator: Adobe Illustrator 22.1.0, SVG Export Plug-In . SVG Version: 6.00 Build 0)  -->
<svg version="1.1" id="레이어_1" xmlns="http://www.w3.org/2000/svg" xmlns:xlink="http://www.w3.org/1999/xlink" x="0px"
	 y="0px" viewBox="0 0 500 500" style="enable-background:new 0 0 500 500;" xml:space="preserve">
<style type="text/css">
	.st0{fill:#FFFFFF;}
</style>
<g>
	<g>
		<path class="st0" d="M250.4,495.1c-135.1,0-245-109.9-245-245s109.9-245,245-245s245,109.9,245,245
			C495.5,385.2,385.5,495.1,250.4,495.1z M250.4,16.4c-128.9,0-233.7,104.9-233.7,233.7c0,128.9,104.9,233.7,233.7,233.7
			c128.9,0,233.7-104.9,233.7-233.7C484.2,121.2,379.3,16.4,250.4,16.4z"/>
	</g>
	<g>
		<g>
			<g>
				<path class="st0" d="M256.7,181.6c-2.4,0-4.7-0.2-7.1-0.5c-14.2-1.9-26.8-9.1-35.5-20.5c-18-23.4-13.5-57.1,9.9-75
					c11.3-8.7,25.4-12.5,39.6-10.6s26.8,9.1,35.5,20.5c18,23.4,13.5,57.1-9.9,75C279.7,177.8,268.4,181.6,256.7,181.6z M256.5,85.9
					c-9.2,0-18.2,3-25.6,8.7c-18.5,14.2-22,40.7-7.8,59.2c6.9,8.9,16.8,14.7,28,16.2s22.3-1.5,31.2-8.4c18.5-14.2,22-40.7,7.8-59.2
					l0,0c-6.9-8.9-16.8-14.7-28-16.2C260.2,86,258.4,85.9,256.5,85.9z"/>
			</g>
			<g>
				<g>
					<path class="st0" d="M279.3,157.8c-16.4,12.5-39.9,9.4-52.4-6.9c-12.5-16.4-9.4-39.9,6.9-52.4c16.4-12.5,39.9-9.4,52.4,6.9
						C298.8,121.7,295.7,145.2,279.3,157.8z M237,102.5c-14.1,10.8-16.8,31.1-6,45.2c10.8,14.1,31.1,16.8,45.2,6s16.8-31.1,6-45.2
						C271.4,94.4,251.1,91.7,237,102.5z"/>
				</g>
			</g>
			<g>
				<g>
					<path class="st0" d="M269.1,120.8l6.7,14.5c0.2,0.3,0.2,0.5,0.1,0.7c-0.1,0.1-0.3,0.3-0.6,0.6l-3.2,2.4
						c-0.3,0.2-0.5,0.4-0.7,0.4c-0.1,0-0.3-0.1-0.6-0.3l-12.2-10.3l-2.3,1.8l6.9,14.4c0.1,0.3,0.2,0.5,0.1,0.6
						c0,0.1-0.2,0.3-0.5,0.6l-3.2,2.5c-0.3,0.3-0.6,0.4-0.7,0.4s-0.3-0.1-0.6-0.3l-12.4-10.2l-4.1,3.1c-0.3,0.2-0.5,0.3-0.7,0.3
						s-0.4-0.2-0.6-0.5l-2.1-2.8c-0.2-0.3-0.3-0.6-0.3-0.7s0.2-0.4,0.5-0.6l3.1-2.4l-8.6-7.2c-0.4-0.3-0.5-0.6-0.5-0.7
						c0-0.2,0.2-0.4,0.6-0.8l2.9-2.2c0.2-0.2,0.4-0.3,0.6-0.4c0.2-0.1,0.4,0,0.6,0.3l8.9,7.6l3.5-2.7l-5.1-10.5
						c-0.2-0.3-0.2-0.5-0.1-0.7c0.1-0.1,0.3-0.3,0.5-0.5l3.4-2.6c0.3-0.2,0.5-0.3,0.6-0.4c0.2,0,0.4,0,0.6,0.3l8.9,7.6l3.6-2.7
						l-5.1-10.5c-0.2-0.3-0.2-0.5-0.1-0.6s0.2-0.3,0.5-0.5l3-2.3c0.4-0.3,0.7-0.4,0.8-0.4c0.1,0.1,0.3,0.3,0.6,0.8l4.9,10.1l3-2.3
						c0.3-0.3,0.6-0.4,0.8-0.3c0.2,0,0.4,0.2,0.6,0.5l2.1,2.8c0.2,0.3,0.3,0.5,0.3,0.7s-0.2,0.4-0.5,0.6L269.1,120.8z M255.7,139.8
						l-3.3-6.1l-1.8,1.4L255.7,139.8z M253.9,125.8l1-0.8l-2.8-2.6L253.9,125.8z M268,130.4l-3.3-6.2l-1.9,1.4L268,130.4z"/>
				</g>
			</g>
		</g>
		<g>
			<g>
				<g>
					<path class="st0" d="M298.6,399.6c-6.2,0-12.7-3.5-15-10.1c-21.5,6.9-45,6.8-66.5-0.1c-2.3,6.6-8.8,10.2-15,10.2
						c-7.7,0-15.9-5.5-15.9-15.6v-10.4c-28.1-20.5-44.8-53.2-44.8-88.1c0-24.7,8.4-48.8,23.8-68V187c0-4.6,2.6-8.8,6.7-10.8
						c4.1-2.1,9-1.6,12.7,1.2L200,189c31-16.2,69.8-16.2,100.9,0l15.4-11.6c3.7-2.8,8.5-3.2,12.7-1.2c4.1,2.1,6.7,6.2,6.7,10.8v30.6
						c15.4,19.2,23.8,43.3,23.8,68c0,35-16.8,67.7-45,88.3v10.2C314.5,394.2,306.3,399.6,298.6,399.6z M288.3,376.3
						c1.1,0,2.2,0.3,3.2,1c1.5,1,2.5,2.8,2.5,4.7v2.2c0,4,3.5,4.3,4.6,4.3s4.6-0.3,4.6-4.3V371c0-1.9,0.9-3.6,2.4-4.6
						c26.7-18.3,42.6-48.4,42.6-80.7c0-22.8-8-44.9-22.5-62.4c-0.8-1-1.3-2.3-1.3-3.6V187c0-0.1,0-0.5-0.5-0.7s-0.8,0-0.9,0.1
						l-18.3,13.8c-1.8,1.4-4.2,1.5-6.2,0.4c-29.3-16.6-67-16.6-96.3,0c-1.9,1.1-4.4,1-6.2-0.4l-18.3-13.8c-0.1-0.1-0.4-0.3-0.9-0.1
						s-0.5,0.6-0.5,0.7v32.6c0,1.3-0.5,2.6-1.3,3.6c-14.5,17.5-22.5,39.6-22.5,62.4c0,32.1,15.8,62.2,42.3,80.5
						c1.5,1.1,2.4,2.8,2.4,4.6V384c0,4,3.5,4.3,4.6,4.3s4.6-0.3,4.6-4.3v-2.3c0-1.9,0.9-3.6,2.5-4.7c1.5-1.1,3.5-1.3,5.2-0.6
						c23,9.1,48.9,9.1,71.9,0.1C286.9,376.4,287.6,376.3,288.3,376.3z"/>
				</g>
			</g>
			<g>
				<path class="st0" d="M250.5,331.2c-29.2,0-53-20.4-53-45.5s23.8-45.5,53-45.5s53,20.4,53,45.5
					C303.5,310.8,279.7,331.2,250.5,331.2z M250.5,251.4c-23,0-41.8,15.4-41.8,34.2c0,18.9,18.7,34.2,41.8,34.2
					c23,0,41.8-15.4,41.8-34.2C292.2,266.8,273.5,251.4,250.5,251.4z"/>
			</g>
			<g>
				<g>
					<g>
						<circle class="st0" cx="265.7" cy="285.7" r="7.6"/>
					</g>
				</g>
				<g>
					<g>
						<path class="st0" d="M242.8,285.7c0,4.2-3.4,7.6-7.6,7.6c-4.2,0-7.6-3.4-7.6-7.6s3.4-7.6,7.6-7.6
							C239.4,278.1,242.8,281.5,242.8,285.7z"/>
					</g>
				</g>
			</g>
			<g>
				<g>
					<path class="st0" d="M296.1,223.6c-3.7,0-6.9,1.4-9.1,4c-1.9,2.3-3,5.3-3,8.5c0,6.2,4.2,12.4,12.1,12.4c3.7,0,6.9-1.4,9.1-4
						c1.9-2.3,3-5.3,3-8.5C308.1,229.8,304,223.6,296.1,223.6z"/>
				</g>
				<g>
					<path class="st0" d="M204.8,223.6c-3.7,0-6.9,1.4-9.1,4c-1.9,2.3-3,5.3-3,8.5c0,6.2,4.2,12.4,12.1,12.4c3.7,0,6.9-1.4,9.1-4
						c1.9-2.3,3-5.3,3-8.5C216.9,229.8,212.8,223.6,204.8,223.6z"/>
				</g>
			</g>
		</g>
	</g>
</g>
</svg>
