<?xml version="1.0" encoding="utf-8"?>
<!-- Generator: Adobe Illustrator 22.1.0, SVG Export Plug-In . SVG Version: 6.00 Build 0)  -->
<svg version="1.1" id="레이어_1" xmlns="http://www.w3.org/2000/svg" xmlns:xlink="http://www.w3.org/1999/xlink" x="0px"
	 y="0px" viewBox="0 0 500 500" style="enable-background:new 0 0 500 500;" xml:space="preserve">
<style type="text/css">
	.st0{fill:#FFFFFF;}
</style>
<g>
	<g>
		<path class="st0" d="M249.8,495.1c-135.1,0-245-109.9-245-245c0-135.1,109.9-245,245-245c135.1,0,245,109.9,245,245
			C494.8,385.2,384.9,495.1,249.8,495.1z M249.8,16.4c-128.9,0-233.7,104.9-233.7,233.7c0,128.9,104.9,233.7,233.7,233.7
			c128.9,0,233.7-104.9,233.7-233.7C483.5,121.2,378.7,16.4,249.8,16.4z"/>
	</g>
	<g>
		<path class="st0" d="M254.1,292.2h-40.7c-2,0-3.8-1.4-4.2-3.3c-0.5-1.9,0.4-4,2.2-4.9l9.6-5.2c-9.3-9-14.7-21.4-14.7-34.4
			c0-26.4,21.5-47.9,47.9-47.9c26.4,0,47.9,21.5,47.9,47.9C302,270.7,280.5,292.2,254.1,292.2z M230.7,283.4h23.4
			c21.6,0,39.1-17.5,39.1-39.1c0-21.6-17.5-39.1-39.1-39.1c-21.6,0-39.1,17.5-39.1,39.1c0,12.5,6.1,24.3,16.2,31.7
			c1.2,0.9,1.9,2.3,1.8,3.8C232.9,281.3,232.1,282.7,230.7,283.4L230.7,283.4z"/>
	</g>
	<path class="st0" d="M268.7,245.6c-2.4-2-6-3.7-10.8-5.4v-10.9c3.6,0.4,6.8,1.3,9.6,2.8l1.8,1v-10.3l-0.7-0.3
		c-2.4-1.1-5.9-1.8-10.7-2.1v-5.7h-7.6v5.8c-4,0.5-7.4,1.9-10.1,4.1c-3.1,2.5-4.6,5.6-4.6,9.2c0,3.5,1.3,6.4,3.9,8.7
		c2.3,2.1,5.9,3.9,10.9,5.5v10.4c-1.8-0.2-3.8-0.6-6-1.2c-2.7-0.8-4.7-1.6-6-2.5l-2-1.4v10.9l0.7,0.3c3.9,1.8,8.4,2.7,13.2,2.9v6.6
		h7.6v-6.9c4.4-0.6,7.9-1.9,10.5-3.9c2.9-2.3,4.4-5.4,4.4-9C272.7,250.6,271.4,247.8,268.7,245.6z M261.3,254.5
		c0,1.2-0.4,2.7-3.4,3.5v-7.3C259.6,251.6,261.3,252.9,261.3,254.5z M246.9,233.2c0-1.2,0.4-2.8,3.3-3.6v7.7c-1.4-0.7-2-1.3-2.4-1.7
		C247.2,234.9,246.9,234.2,246.9,233.2z"/>
	<g>
		<g>
			<g>
				<g>
					<path class="st0" d="M385.9,321.9H119.3V188.6c0-20.7,16.8-37.5,37.5-37.5h191.5c20.7,0,37.5,16.8,37.5,37.5V321.9z
						 M130.6,310.6h244.1v-122c0-14.5-11.8-26.3-26.3-26.3H156.9c-14.5,0-26.3,11.8-26.3,26.3V310.6z"/>
				</g>
			</g>
			<g>
				<g>
					<path class="st0" d="M362,321.9H143.2V193.2c0-11.9,9.7-21.6,21.6-21.6h175.5c11.9,0,21.6,9.7,21.6,21.6V321.9z M154.5,310.6
						h196.2V193.2c0-5.7-4.6-10.3-10.3-10.3H164.8c-5.7,0-10.3,4.6-10.3,10.3V310.6z"/>
				</g>
			</g>
			<g>
				<g>
					<path class="st0" d="M380.3,345.8H124.9c-16.3,0-29.6-13.3-29.6-29.6v-5.6h314.5v5.6C409.8,332.6,396.6,345.8,380.3,345.8z
						 M107.5,321.9c2.4,7.4,9.3,12.7,17.4,12.7h255.3c8.1,0,15-5.3,17.4-12.7H107.5z"/>
				</g>
			</g>
			<g>
				<path class="st0" d="M287.5,325.1h-66.7c-1.8,0-3.2,1.4-3.2,3.2c0,1.8,1.4,3.2,3.2,3.2h66.7c1.8,0,3.2-1.4,3.2-3.2
					C290.6,326.5,289.2,325.1,287.5,325.1z"/>
			</g>
		</g>
	</g>
</g>
</svg>
