<?xml version="1.0" encoding="utf-8"?>
<!-- Generator: Adobe Illustrator 22.1.0, SVG Export Plug-In . SVG Version: 6.00 Build 0)  -->
<svg version="1.1" id="레이어_1" xmlns="http://www.w3.org/2000/svg" xmlns:xlink="http://www.w3.org/1999/xlink" x="0px"
	 y="0px" viewBox="0 0 322 86" style="enable-background:new 0 0 322 86;" xml:space="preserve">
<style type="text/css">
	.st0{enable-background:new    ;}
	.st1{fill:#FFFFFF;}
</style>
<g class="st0">
	<path class="st1" d="M23.2,79.6H7.9V6.4h15.3V79.6z"/>
	<path class="st1" d="M54.8,6.4l31.8,48.3V6.4H102v73.2H86.6L55.2,32v47.6H39.8L39.7,6.4H54.8z"/>
	<path class="st1" d="M120,9.5c2.4-2.1,6.2-3.1,11.5-3.1h12.9c10.1,0,17.1,2,21.2,6c4,4,6,9.9,6,17.8c0,8.9-2.2,15.1-6.7,18.6
		c-4.5,3.5-11.3,5.3-20.6,5.3h-12.6v25.5h-15.2v-59C116.5,15.3,117.6,11.6,120,9.5z M136.6,18.1c-2,0-3.3,0.4-4,1.2
		c-0.7,0.8-1,2-1,3.6v19.4h11.1c4.4,0,7.7-0.9,9.9-2.8c2.2-1.9,3.3-4.9,3.3-9.3c0-4.4-1.1-7.5-3.2-9.3c-2.2-1.8-5.4-2.7-9.7-2.7
		H136.6z"/>
	<path class="st1" d="M245.3,60.1c-1.1,4.7-3,8.5-5.5,11.6c-2.5,3.2-5.9,5.5-10.1,7c-4.2,1.5-9.3,2.3-15.3,2.3
		c-6.2,0-11.5-0.8-15.6-2.4c-4.2-1.6-7.5-4-10-7.2c-2.5-3.2-4.2-7.3-5.3-12.1c-1-4.8-1.5-10.5-1.5-17c0-5.8,0.5-11.1,1.4-15.8
		c1-4.7,2.7-8.6,5.1-11.7c2.5-3.2,5.8-5.7,10-7.4c4.2-1.7,9.5-2.6,16-2.6c6.5,0,11.8,0.8,16,2.5c4.2,1.7,7.5,4.1,10,7.4
		c2.4,3.3,4.1,7.4,5.1,12.2c1,4.8,1.5,10.4,1.5,16.7C247,50,246.4,55.5,245.3,60.1z M226.7,63.3c2.8-3.6,4.2-10.1,4.2-19.6
		c0-5-0.3-9.2-1-12.6c-0.7-3.4-1.6-6.1-2.9-8.1c-1.4-2.1-3.1-3.5-5.1-4.4c-2.1-0.9-4.5-1.3-7.4-1.3c-2.7,0-5.2,0.4-7.2,1.3
		c-2.1,0.9-3.8,2.3-5.1,4.2c-1.4,2-2.4,4.6-3.1,7.8c-0.7,3.2-1,7.2-1,11.9c0,9.9,1.3,16.8,3.9,20.6c2.6,3.8,6.8,5.8,12.6,5.8
		C219.8,68.7,223.8,66.9,226.7,63.3z"/>
	<path class="st1" d="M295.2,65.7c1.9-2.1,2.8-4.5,2.8-7.2c-0.1-1.2-0.3-2.2-0.8-3c-0.4-0.8-1-1.5-1.8-2.1c-0.7-0.5-1.4-1-2.3-1.4
		c-0.8-0.4-1.6-0.7-2.4-1.1c-1.4-0.5-2.7-0.9-3.8-1.3c-1.1-0.4-2.1-0.8-3.2-1.2c-1.1-0.4-2.3-0.8-3.6-1.3c-1.3-0.4-2.9-1-4.6-1.7
		c-5.4-1.9-9.4-4.2-12-7c-2.6-2.8-4-7-4-12.5c0-3.8,0.7-7,2.2-9.6c1.4-2.6,3.4-4.8,5.9-6.5c2.5-1.7,5.4-3,8.8-3.8
		c3.4-0.8,7-1.2,10.8-1.2c3.4,0,7.2,0.5,11.2,1.5c4.1,1,8.1,2.4,12.3,4.3l-3.5,12.1c-4.7-1.8-8.5-3.1-11.4-4.1s-5.7-1.4-8.5-1.4
		c-4.1,0-7.1,0.9-9,2.6c-1.9,1.7-2.8,3.8-2.8,6.3c0,1.9,0.6,3.3,1.8,4.4c1.2,1.1,2.9,2,5.2,2.8c1.6,0.6,3,1.2,4.2,1.6
		c1.2,0.4,2.4,0.9,3.5,1.3c1.1,0.4,2.2,0.8,3.3,1.2c1.1,0.4,2.3,0.8,3.7,1.2c2.3,0.8,4.5,1.8,6.6,2.8c2.1,1,3.8,2.3,5.4,3.8
		c1.6,1.5,2.8,3.3,3.7,5.5c0.9,2.1,1.3,4.7,1.3,7.7c0,7.1-2.3,12.6-7,16.7c-4.6,4.1-11.9,6.1-21.8,6.1c-4.3,0-8.5-0.6-12.9-1.9
		c-4.3-1.2-8.7-3-13.2-5.3l4.9-12.3c1.9,1,3.8,1.8,5.5,2.6c1.8,0.8,3.5,1.5,5.1,2.1c1.6,0.6,3.3,1.1,5,1.5c1.7,0.4,3.5,0.6,5.5,0.6
		C290,68.8,293.3,67.8,295.2,65.7z"/>
</g>
</svg>
