<?xml version="1.0" encoding="utf-8"?>
<!-- Generator: Adobe Illustrator 22.1.0, SVG Export Plug-In . SVG Version: 6.00 Build 0)  -->
<svg version="1.1" id="레이어_1" xmlns="http://www.w3.org/2000/svg" xmlns:xlink="http://www.w3.org/1999/xlink" x="0px"
	 y="0px" viewBox="0 0 206 31" style="enable-background:new 0 0 206 31;" xml:space="preserve">
<style type="text/css">
	.st0{enable-background:new    ;}
	.st1{fill:#C3CBCC;}
</style>
<g class="st0">
	<path class="st1" d="M21.2,7.7h-6.4v18.8h-3.6V7.7H4.9V4.8h16.3V7.7z"/>
	<path class="st1" d="M33.8,13.2c1.3,1.3,1.9,3.2,1.9,5.9c0,2.5-0.6,4.5-1.9,5.8c-1.3,1.3-3,2-5.2,2c-2.2,0-4-0.7-5.3-2
		s-1.9-3.3-1.9-5.8c0-2.7,0.6-4.7,1.9-5.9c1.3-1.3,3-1.9,5.3-1.9C30.8,11.3,32.5,11.9,33.8,13.2z M25.7,22.7
		c0.5,0.8,1.5,1.2,2.9,1.2c1.4,0,2.3-0.4,2.9-1.2c0.5-0.8,0.8-2,0.8-3.6c0-1.7-0.3-2.9-0.8-3.7c-0.5-0.8-1.5-1.2-2.8-1.2
		c-1.4,0-2.3,0.4-2.9,1.2c-0.5,0.8-0.8,2-0.8,3.7C24.9,20.7,25.2,21.9,25.7,22.7z"/>
	<path class="st1" d="M44.2,14.3v8.9c0,0.4,0.1,0.6,0.2,0.7c0.2,0.1,0.4,0.1,0.6,0.1c0.3,0,0.6-0.1,1-0.2c0.4-0.1,0.8-0.3,1.2-0.5
		l0.8,2.4c-0.5,0.4-1.1,0.7-1.8,0.9c-0.7,0.2-1.3,0.3-2,0.3c-1.4,0-2.3-0.3-2.8-1c-0.5-0.7-0.8-1.5-0.8-2.6v-9H38v-2.9h2.7V6.2
		l3.4-0.7v6h3.4v2.9H44.2z"/>
	<path class="st1" d="M63.5,23.1c0,0.4,0.1,0.7,0.2,0.8C63.8,24,64,24,64.3,24c0.1,0,0.3,0,0.5-0.1c0.2,0,0.4-0.1,0.7-0.2L66,26
		c-0.4,0.3-0.8,0.5-1.3,0.6c-0.4,0.1-0.9,0.2-1.3,0.2c-0.7,0-1.3-0.1-1.8-0.4c-0.5-0.3-0.9-0.6-1.2-1.1c-0.6,0.5-1.2,0.8-1.9,1.1
		c-0.7,0.3-1.6,0.4-2.6,0.4c-1.8,0-3.1-0.4-3.9-1.3c-0.9-0.9-1.3-2-1.3-3.2c0-1.6,0.4-2.7,1.2-3.5c0.8-0.7,2-1.2,3.5-1.4
		c0.7-0.1,1.3-0.1,1.8-0.2c0.5,0,1-0.1,1.7-0.1h1.2v-0.9c0-0.8-0.3-1.4-0.9-1.7s-1.2-0.4-2-0.4c-0.8,0-1.6,0.1-2.4,0.2
		c-0.8,0.1-1.5,0.3-2.3,0.5L52,12.2c0.9-0.3,1.7-0.5,2.5-0.7c0.8-0.1,1.7-0.2,2.7-0.2c2.1,0,3.7,0.4,4.8,1.1c1,0.7,1.5,2,1.5,3.7
		V23.1z M60.1,19.9c-0.9,0-1.7,0.1-2.4,0.1c-0.7,0-1.3,0.1-1.9,0.2c-0.7,0.1-1.2,0.4-1.4,0.8c-0.2,0.4-0.3,0.9-0.3,1.3
		c0,0.5,0.1,0.9,0.4,1.2c0.2,0.4,0.8,0.5,1.7,0.5c0.6,0,1.2-0.1,1.9-0.3c0.6-0.2,1.3-0.6,2-1.2V19.9z"/>
	<path class="st1" d="M72.3,4.2V23c0,0.4,0.1,0.6,0.2,0.8s0.3,0.2,0.7,0.2c0.2,0,0.4,0,0.7,0c0.3,0,0.5-0.1,0.7-0.1l0.4,2.4
		c-0.4,0.2-0.8,0.4-1.3,0.5c-0.5,0.1-1,0.1-1.6,0.1c-1.3,0-2.2-0.4-2.6-1.1S68.8,24,68.8,23V4.2H72.3z"/>
	<path class="st1" d="M95.7,22.9c0.7-0.6,1.1-1.3,1.1-2.3c0-0.8-0.2-1.5-0.7-1.9c-0.4-0.4-1.1-0.8-2-1.2l-4.3-1.7
		c-1.5-0.6-2.6-1.3-3.3-2.1c-0.7-0.8-1.1-1.9-1.1-3.3c0-1,0.2-1.9,0.6-2.6C86.4,7.1,87,6.4,87.7,6c0.7-0.5,1.5-0.8,2.4-1.1
		s1.9-0.4,3-0.4c0.9,0,2,0.2,3.1,0.4c1.1,0.3,2.3,0.7,3.5,1.3l-1,2.9c-1.1-0.5-2.1-0.9-2.9-1.1c-0.8-0.2-1.7-0.4-2.7-0.4
		c-1.4,0-2.4,0.3-3,0.8c-0.7,0.5-1,1.2-1,2.1c0,0.6,0.2,1.1,0.6,1.5c0.4,0.4,1,0.7,1.8,1c0.4,0.2,0.7,0.3,1.1,0.4
		c0.4,0.1,0.7,0.3,1.1,0.4c0.3,0.1,0.7,0.3,1,0.4c0.4,0.1,0.7,0.3,1.1,0.4c0.7,0.3,1.3,0.6,1.8,0.9c0.6,0.3,1.1,0.7,1.5,1.2
		c0.4,0.5,0.8,1,1,1.7c0.2,0.6,0.4,1.4,0.4,2.2s-0.2,1.7-0.5,2.4c-0.3,0.8-0.8,1.4-1.4,2c-0.6,0.6-1.4,1-2.4,1.3
		c-0.9,0.3-2,0.5-3.3,0.5c-1.2,0-2.4-0.1-3.5-0.4c-1.2-0.3-2.4-0.8-3.8-1.6l1.5-2.9c1.2,0.6,2.2,1.1,3,1.4c0.8,0.3,1.8,0.5,2.9,0.5
		C94,23.8,95,23.5,95.7,22.9z"/>
	<path class="st1" d="M116.3,13.2c1.3,1.3,1.9,3.2,1.9,5.9c0,2.5-0.6,4.5-1.9,5.8s-3,2-5.2,2c-2.2,0-4-0.7-5.3-2
		c-1.3-1.3-1.9-3.3-1.9-5.8c0-2.7,0.6-4.7,1.9-5.9c1.3-1.3,3-1.9,5.3-1.9C113.3,11.3,115,11.9,116.3,13.2z M108.2,22.7
		c0.5,0.8,1.5,1.2,2.9,1.2c1.4,0,2.3-0.4,2.9-1.2c0.5-0.8,0.8-2,0.8-3.6c0-1.7-0.3-2.9-0.8-3.7c-0.5-0.8-1.5-1.2-2.8-1.2
		c-1.4,0-2.3,0.4-2.9,1.2c-0.5,0.8-0.8,2-0.8,3.7C107.4,20.7,107.7,21.9,108.2,22.7z"/>
	<path class="st1" d="M125.2,4.2V23c0,0.4,0.1,0.6,0.2,0.8s0.3,0.2,0.7,0.2c0.2,0,0.4,0,0.7,0c0.3,0,0.5-0.1,0.7-0.1l0.4,2.4
		c-0.4,0.2-0.8,0.4-1.3,0.5c-0.5,0.1-1,0.1-1.6,0.1c-1.3,0-2.2-0.4-2.6-1.1c-0.4-0.8-0.7-1.7-0.7-2.7V4.2H125.2z"/>
	<path class="st1" d="M143,11.7v11.5c0,0.3,0,0.5,0.1,0.6c0.1,0.1,0.3,0.2,0.5,0.2c0.2,0,0.4,0,0.6,0c0.2,0,0.4-0.1,0.7-0.2l0.5,2.3
		c-0.3,0.2-0.7,0.4-1.1,0.5c-0.5,0.1-0.9,0.2-1.3,0.2c-0.7,0-1.4-0.1-1.9-0.4c-0.5-0.3-0.9-0.7-1.2-1.3c-0.5,0.5-1.2,0.9-2,1.2
		c-0.8,0.3-1.7,0.5-2.7,0.5c-1.7,0-3-0.4-3.8-1.1s-1.3-1.9-1.3-3.4V11.7h3.5v10.2c0,0.8,0.2,1.3,0.5,1.6s0.8,0.4,1.6,0.4
		c0.7,0,1.4-0.1,2.1-0.4c0.7-0.3,1.3-0.7,1.9-1.3V11.7H143z"/>
	<path class="st1" d="M152.6,14.3v8.9c0,0.4,0.1,0.6,0.2,0.7c0.2,0.1,0.4,0.1,0.6,0.1c0.3,0,0.6-0.1,1-0.2s0.8-0.3,1.2-0.5l0.8,2.4
		c-0.5,0.4-1.1,0.7-1.8,0.9c-0.7,0.2-1.3,0.3-2,0.3c-1.4,0-2.3-0.3-2.8-1c-0.5-0.7-0.8-1.5-0.8-2.6v-9h-2.7v-2.9h2.7V6.2l3.4-0.7v6
		h3.4v2.9H152.6z"/>
	<path class="st1" d="M166.5,23.8c0.4-0.1,0.7-0.2,1-0.4l0.7,2.4c-0.6,0.4-1.1,0.6-1.7,0.8c-0.6,0.2-1.2,0.2-1.7,0.2
		c-1.4,0-2.3-0.3-2.8-1c-0.5-0.7-0.8-1.6-0.8-2.9v-8.4h-1.9v-2.8h5.3v11.2c0,0.3,0.1,0.5,0.2,0.7s0.4,0.2,0.7,0.2
		C165.9,23.9,166.2,23.9,166.5,23.8z M161,8.3V4.5h3.7v3.8H161z"/>
	<path class="st1" d="M182.5,13.2c1.3,1.3,1.9,3.2,1.9,5.9c0,2.5-0.6,4.5-1.9,5.8s-3,2-5.2,2c-2.2,0-4-0.7-5.3-2
		c-1.3-1.3-1.9-3.3-1.9-5.8c0-2.7,0.6-4.7,1.9-5.9c1.3-1.3,3-1.9,5.3-1.9C179.5,11.3,181.2,11.9,182.5,13.2z M174.4,22.7
		c0.5,0.8,1.5,1.2,2.9,1.2c1.4,0,2.3-0.4,2.9-1.2c0.5-0.8,0.8-2,0.8-3.6c0-1.7-0.3-2.9-0.8-3.7c-0.5-0.8-1.5-1.2-2.8-1.2
		c-1.4,0-2.3,0.4-2.9,1.2c-0.5,0.8-0.8,2-0.8,3.7C173.6,20.7,173.9,21.9,174.4,22.7z"/>
	<path class="st1" d="M197.6,26.5V16.5c0-0.8-0.2-1.3-0.5-1.7c-0.3-0.4-0.9-0.6-1.6-0.6c-0.9,0-1.7,0.2-2.4,0.7
		c-0.7,0.4-1.3,0.9-1.8,1.4v10.2h-3.5V11.7h3.1l0.3,1.3c0.7-0.5,1.5-1,2.3-1.3c0.8-0.3,1.7-0.5,2.7-0.5c1.7,0,2.9,0.4,3.7,1.1
		c0.8,0.8,1.2,1.9,1.2,3.4v10.8H197.6z"/>
</g>
</svg>
